<svg width="120" height="120" viewBox="0 0 120 120" fill="none" xmlns="http://www.w3.org/2000/svg">
<g clip-path="url(#clip0_1975_46876)">
<g style="mix-blend-mode:multiply" opacity="0.4">
<path d="M33.1082 56.7569C33.1082 41.9795 45.0877 30 59.8651 30C74.6425 30 86.622 41.9795 86.622 56.7569C86.622 71.5344 74.6425 83.5138 59.8651 83.5138C45.0877 83.5138 33.1082 71.5344 33.1082 56.7569Z" fill="url(#paint0_linear_1975_46876)"/>
</g>
<g style="mix-blend-mode:multiply" opacity="0.4">
<path fill-rule="evenodd" clip-rule="evenodd" d="M59.8651 68.9192C40.6096 68.9192 25 84.5288 25 103.784V118.449C25 118.969 25.0114 119.486 25.0339 120H94.6963C94.7188 119.486 94.7302 118.969 94.7302 118.449V103.784C94.7302 84.5288 79.1205 68.9192 59.8651 68.9192Z" fill="url(#paint1_linear_1975_46876)"/>
</g>
</g>
<defs>
<linearGradient id="paint0_linear_1975_46876" x1="87.7716" y1="84.7236" x2="34.1802" y2="31.1322" gradientUnits="userSpaceOnUse">
<stop stop-color="#005BFB"/>
<stop offset="1" stop-color="#EDF3FF"/>
</linearGradient>
<linearGradient id="paint1_linear_1975_46876" x1="96.228" y1="121.155" x2="47.4546" y2="54.5742" gradientUnits="userSpaceOnUse">
<stop stop-color="#005BFB"/>
<stop offset="1" stop-color="#428AFF"/>
</linearGradient>
<clipPath id="clip0_1975_46876">
<rect width="120" height="120" fill="white"/>
</clipPath>
</defs>
</svg>
